<svg width="16" height="16" viewBox="0 0 16 16" fill="none" xmlns="http://www.w3.org/2000/svg">
<circle cx="8" cy="8" r="7.5" stroke="#F3F4F6"/>
<g clip-path="url(#clip0_205_50)">
<path d="M9.33751 4.45629L7.75157 6.04379L7.6047 5.89691C7.40939 5.7016 7.0922 5.7016 6.89689 5.89691C6.70157 6.09222 6.70157 6.40941 6.89689 6.60472L9.39689 9.10472C9.5922 9.30004 9.90939 9.30004 10.1047 9.10472C10.3 8.90941 10.3 8.59222 10.1047 8.39691L9.95782 8.25004L11.5438 6.66254C12.1531 6.05316 12.1531 5.06566 11.5438 4.45785C10.9344 3.85004 9.94689 3.84847 9.33907 4.45785L9.33751 4.45629ZM4.86564 9.0516C4.63126 9.28597 4.50001 9.60472 4.50001 9.93597V10.5985L4.08439 11.2219C3.95157 11.4203 3.97814 11.6844 4.14689 11.8532C4.31564 12.0219 4.5797 12.0485 4.77814 11.9157L5.40157 11.5H6.06407C6.39532 11.5 6.71407 11.3688 6.94845 11.1344L8.83439 9.24847L8.12657 8.54066L6.24064 10.4266C6.19376 10.4735 6.1297 10.5 6.06407 10.5H5.50001V9.93597C5.50001 9.87035 5.52657 9.80629 5.57345 9.75941L7.45939 7.87347L6.75157 7.16566L4.86564 9.0516Z" fill="#F3F4F6"/>
</g>
<defs>
<clipPath id="clip0_205_50">
<rect width="8" height="8" fill="white" transform="translate(4 4)"/>
</clipPath>
</defs>
</svg>
