<svg width="146" height="146" viewBox="0 0 146 146" fill="none" xmlns="http://www.w3.org/2000/svg">
<g clip-path="url(#clip0_205_56)">
<path d="M125.013 45.0408L110.077 3.90533C108.974 0.868529 105.733 -0.744771 102.857 0.313729L3.59162 36.5436C0.715419 37.5948 -0.737281 40.9017 0.372319 43.9385L16.1111 87.3078V64.0719C16.1111 53.5745 24.4915 45.0408 34.7991 45.0408H61.028L92.3085 23.0824L110.405 45.0408H125.013V45.0408ZM140.437 58.3998H34.7991C34.059 58.3987 33.3262 58.5455 32.6436 58.8315C31.961 59.1175 31.3425 59.537 30.8243 60.0654C30.3061 60.5938 29.8987 61.2204 29.6261 61.9084C29.3534 62.5964 29.221 63.332 29.2365 64.0719V132.838C29.2438 136.079 31.7404 138.7 34.7991 138.7H140.437C143.503 138.7 146 136.079 146 132.838V64.0719C146.016 63.332 145.883 62.5964 145.61 61.9084C145.338 61.2204 144.93 60.5938 144.412 60.0654C143.894 59.537 143.275 59.1175 142.593 58.8315C141.91 58.5455 141.177 58.3987 140.437 58.3998V58.3998ZM131.4 124.1H43.8V109.5L58.2832 80.1684L78.4896 105.251L97.455 85.8186L121.822 77.0221L131.4 102.2V124.1Z" fill="#E4E4E7"/>
</g>
<defs>
<clipPath id="clip0_205_56">
<rect width="146" height="146" fill="white"/>
</clipPath>
</defs>
</svg>
