<svg width="91" height="91" viewBox="0 0 91 91" fill="none" xmlns="http://www.w3.org/2000/svg">
<path d="M56.875 26.5416C58.8862 26.5416 60.8151 27.3406 62.2372 28.7628C63.6594 30.1849 64.4583 32.1138 64.4583 34.125M79.625 34.125C79.626 37.6784 78.7947 41.1827 77.1975 44.357C75.6004 47.5313 73.2818 50.2873 70.4278 52.4041C67.5737 54.521 64.2634 55.9399 60.7622 56.5471C57.2611 57.1542 53.6663 56.9328 50.2661 55.9005L41.7083 64.4583H34.125V72.0416H26.5417V79.625H15.1667C14.1611 79.625 13.1966 79.2255 12.4856 78.5144C11.7745 77.8034 11.375 76.8389 11.375 75.8333V66.0281C11.3752 65.0225 11.7748 64.0583 12.486 63.3474L35.0995 40.7339C34.1532 37.6058 33.8921 34.3106 34.3337 31.0725C34.7753 27.8344 35.9094 24.7295 37.6588 21.9691C39.4082 19.2086 41.7317 16.8575 44.4713 15.0757C47.2109 13.2939 50.3022 12.1233 53.5348 11.6435C56.7675 11.1636 60.0656 11.3859 63.2046 12.2952C66.3436 13.2044 69.2499 14.7793 71.7256 16.9126C74.2013 19.0459 76.1884 21.6875 77.5515 24.6577C78.9146 27.6279 79.6219 30.8569 79.625 34.125V34.125Z" stroke="white" stroke-width="6" stroke-linecap="round" stroke-linejoin="round"/>
</svg>
