<svg width="56" height="56" viewBox="0 0 56 56" fill="none" xmlns="http://www.w3.org/2000/svg">
<path d="M28 5.25C21.2713 5.25 15.75 10.7713 15.75 17.5V22.5313C14.0887 24.1553 12.7685 26.0948 11.867 28.2359C10.9654 30.3771 10.5007 32.6768 10.5 35C10.5 44.6425 18.3575 52.5 28 52.5C37.6425 52.5 45.5 44.6425 45.5 35C45.4993 32.6768 45.0346 30.3771 44.133 28.2359C43.2315 26.0948 41.9113 24.1553 40.25 22.5313V17.5C40.25 10.7713 34.7288 5.25 28 5.25ZM28 8.75C32.8213 8.75 36.75 12.6787 36.75 17.5V19.9063C34.1688 18.4013 31.1955 17.5 28 17.5C24.8045 17.5 21.8313 18.403 19.25 19.9063V17.5C19.25 12.6787 23.1787 8.75 28 8.75ZM28 21C35.7525 21 42 27.2475 42 35C42 42.7525 35.7525 49 28 49C20.2475 49 14 42.7525 14 35C14 27.2475 20.2475 21 28 21ZM28 31.5C27.0717 31.5 26.1815 31.8687 25.5251 32.5251C24.8687 33.1815 24.5 34.0717 24.5 35C24.5 36.295 25.2053 37.4027 26.25 38.01V43.75H29.75V38.01C30.7948 37.4027 31.5 36.295 31.5 35C31.5 34.0717 31.1313 33.1815 30.4749 32.5251C29.8185 31.8687 28.9283 31.5 28 31.5Z" fill="white"/>
</svg>
