<svg width="24" height="24" viewBox="0 0 24 24" fill="none" xmlns="http://www.w3.org/2000/svg">
<path d="M18.5 20C18.5 20.1326 18.4473 20.2598 18.3536 20.3536C18.2598 20.4473 18.1326 20.5 18 20.5H12.268C11.9817 21.0486 11.6187 21.5537 11.19 22H18C18.5304 22 19.0391 21.7893 19.4142 21.4142C19.7893 21.0391 20 20.5304 20 20V9.828C19.9999 9.29761 19.7891 8.78899 19.414 8.414L13.585 2.586C13.5695 2.57163 13.5532 2.55827 13.536 2.546C13.5236 2.53645 13.5116 2.52644 13.5 2.516C13.4312 2.45107 13.358 2.39093 13.281 2.336C13.2554 2.31948 13.2287 2.30478 13.201 2.292L13.153 2.268L13.103 2.239C13.049 2.208 12.994 2.176 12.937 2.152C12.7379 2.07246 12.5271 2.02585 12.313 2.014C12.2932 2.01271 12.2735 2.01038 12.254 2.007C12.2269 2.00281 12.1995 2.00047 12.172 2H6C5.46957 2 4.96086 2.21071 4.58579 2.58579C4.21071 2.96086 4 3.46957 4 4V11.498C4.48111 11.2972 4.98479 11.1555 5.5 11.076V4C5.5 3.86739 5.55268 3.74021 5.64645 3.64645C5.74021 3.55268 5.86739 3.5 6 3.5H12V8C12 8.53043 12.2107 9.03914 12.5858 9.41421C12.9609 9.78929 13.4696 10 14 10H18.5V20ZM13.5 4.621L17.378 8.5H14C13.8674 8.5 13.7402 8.44732 13.6464 8.35355C13.5527 8.25979 13.5 8.13261 13.5 8V4.621ZM1 17.5C1 18.2223 1.14226 18.9375 1.41866 19.6048C1.69506 20.272 2.10019 20.8784 2.61091 21.3891C3.12163 21.8998 3.72795 22.3049 4.39524 22.5813C5.06253 22.8577 5.77773 23 6.5 23C7.22227 23 7.93747 22.8577 8.60476 22.5813C9.27205 22.3049 9.87837 21.8998 10.3891 21.3891C10.8998 20.8784 11.3049 20.272 11.5813 19.6048C11.8577 18.9375 12 18.2223 12 17.5C12 16.0413 11.4205 14.6424 10.3891 13.6109C9.35764 12.5795 7.95869 12 6.5 12C5.04131 12 3.64236 12.5795 2.61091 13.6109C1.57946 14.6424 1 16.0413 1 17.5ZM5.75 20.75C5.75 20.5511 5.82902 20.3603 5.96967 20.2197C6.11032 20.079 6.30109 20 6.5 20C6.69891 20 6.88968 20.079 7.03033 20.2197C7.17098 20.3603 7.25 20.5511 7.25 20.75C7.25 20.9489 7.17098 21.1397 7.03033 21.2803C6.88968 21.421 6.69891 21.5 6.5 21.5C6.30109 21.5 6.11032 21.421 5.96967 21.2803C5.82902 21.1397 5.75 20.9489 5.75 20.75ZM4.5 16C4.5 15.4696 4.71071 14.9609 5.08579 14.5858C5.46086 14.2107 5.96957 14 6.5 14C7.03043 14 7.53914 14.2107 7.91421 14.5858C8.28929 14.9609 8.5 15.4696 8.5 16C8.5 16.73 8.288 17.14 7.746 17.708L7.482 17.978L7.366 18.102C7.083 18.421 7 18.63 7 19C7 19.1326 6.94732 19.2598 6.85355 19.3536C6.75979 19.4473 6.63261 19.5 6.5 19.5C6.36739 19.5 6.24021 19.4473 6.14645 19.3536C6.05268 19.2598 6 19.1326 6 19C6 18.27 6.212 17.86 6.754 17.292L7.018 17.022L7.134 16.898C7.417 16.579 7.5 16.371 7.5 16C7.5 15.7348 7.39464 15.4804 7.20711 15.2929C7.01957 15.1054 6.76522 15 6.5 15C6.23478 15 5.98043 15.1054 5.79289 15.2929C5.60536 15.4804 5.5 15.7348 5.5 16C5.5 16.1326 5.44732 16.2598 5.35355 16.3536C5.25979 16.4473 5.13261 16.5 5 16.5C4.86739 16.5 4.74021 16.4473 4.64645 16.3536C4.55268 16.2598 4.5 16.1326 4.5 16Z" fill="white"/>
</svg>
