<svg width="14" height="14" viewBox="0 0 14 14" fill="none" xmlns="http://www.w3.org/2000/svg">
<g clip-path="url(#clip0_205_64)">
<path d="M1.87775 2.49725C1.83708 2.45658 1.80481 2.40829 1.7828 2.35514C1.76078 2.30199 1.74945 2.24503 1.74945 2.1875C1.74945 2.12998 1.76078 2.07301 1.7828 2.01987C1.80481 1.96672 1.83708 1.91843 1.87775 1.87775C1.91843 1.83708 1.96672 1.80481 2.01987 1.7828C2.07301 1.76078 2.12998 1.74945 2.1875 1.74945C2.24503 1.74945 2.30199 1.76078 2.35514 1.7828C2.40829 1.80481 2.45658 1.83708 2.49725 1.87775L7 6.38138L11.5028 1.87775C11.5434 1.83708 11.5917 1.80481 11.6449 1.7828C11.698 1.76078 11.755 1.74945 11.8125 1.74945C11.87 1.74945 11.927 1.76078 11.9801 1.7828C12.0333 1.80481 12.0816 1.83708 12.1223 1.87775C12.1629 1.91843 12.1952 1.96672 12.2172 2.01987C12.2392 2.07301 12.2506 2.12998 12.2506 2.1875C12.2506 2.24503 12.2392 2.30199 12.2172 2.35514C12.1952 2.40829 12.1629 2.45658 12.1223 2.49725L7.61863 7L12.1223 11.5028C12.1629 11.5434 12.1952 11.5917 12.2172 11.6449C12.2392 11.698 12.2506 11.755 12.2506 11.8125C12.2506 11.87 12.2392 11.927 12.2172 11.9801C12.1952 12.0333 12.1629 12.0816 12.1223 12.1223C12.0816 12.1629 12.0333 12.1952 11.9801 12.2172C11.927 12.2392 11.87 12.2506 11.8125 12.2506C11.755 12.2506 11.698 12.2392 11.6449 12.2172C11.5917 12.1952 11.5434 12.1629 11.5028 12.1223L7 7.61863L2.49725 12.1223C2.45658 12.1629 2.40829 12.1952 2.35514 12.2172C2.30199 12.2392 2.24503 12.2506 2.1875 12.2506C2.12998 12.2506 2.07301 12.2392 2.01987 12.2172C1.96672 12.1952 1.91843 12.1629 1.87775 12.1223C1.83708 12.0816 1.80481 12.0333 1.7828 11.9801C1.76078 11.927 1.74945 11.87 1.74945 11.8125C1.74945 11.755 1.76078 11.698 1.7828 11.6449C1.80481 11.5917 1.83708 11.5434 1.87775 11.5028L6.38138 7L1.87775 2.49725Z" stroke="white" stroke-width="2"/>
</g>
<defs>
<clipPath id="clip0_205_64">
<rect width="14" height="14" fill="white"/>
</clipPath>
</defs>
</svg>
