<svg width="90" height="90" viewBox="0 0 90 90" fill="none" xmlns="http://www.w3.org/2000/svg">
<path d="M84.525 79.2L76.5375 71.25L84.525 63.3L79.2 57.975L71.25 65.9625L63.3 57.975L57.975 63.3L65.9625 71.25L57.975 79.2L63.3 84.525L71.25 76.5375L79.2 84.525M22.5 7.5C20.5109 7.5 18.6032 8.29018 17.1967 9.6967C15.7902 11.1032 15 13.0109 15 15V75C15 79.1625 18.3375 82.5 22.5 82.5H51.7875C50.4375 80.175 49.5 77.625 49.05 75H22.5V15H48.75V33.75H67.5V49.05C68.7375 48.8625 70.0125 48.75 71.25 48.75C72.525 48.75 73.7625 48.8625 75 49.05V30L52.5 7.5M30 45V52.5H60V45M30 60V67.5H48.75V60H30Z" fill="#E63232"/>
</svg>
